<?xml version="1.0" encoding="iso-8859-1"?>
<!-- Uploaded to: SVG Repo, www.svgrepo.com, Generator: SVG Repo Mixer Tools -->
<svg version="1.1" id="Layer_1" xmlns="http://www.w3.org/2000/svg" xmlns:xlink="http://www.w3.org/1999/xlink" 
	 viewBox="0 0 512 512" xml:space="preserve">
<path style="fill:#04C051;" d="M407.863,418.268H21.019c-7.143,0-12.935-5.792-12.935-12.935V106.666
	c0-7.143,5.792-12.935,12.935-12.935h469.962c7.145,0,12.935,5.792,12.935,12.935v298.667c0,7.143-5.789,12.935-12.935,12.935
	h-56.17"/>
<path style="fill:#08AF4B;" d="M33.415,405.334V106.666c0-7.143,5.792-12.935,12.935-12.935H21.019
	c-7.143,0-12.935,5.792-12.935,12.935v298.667c0,7.143,5.792,12.935,12.935,12.935h25.331
	C39.206,418.268,33.415,412.477,33.415,405.334z"/>
<path style="fill:#69DD0C;" d="M84.856,161.145H8.084v189.709h76.772c7.144,0,12.935-5.792,12.935-12.935V174.08
	C97.791,166.937,92,161.145,84.856,161.145z"/>
<rect x="8.084" y="161.145" style="fill:#65C610;" width="25.331" height="189.709"/>
<g>
	<path style="fill:#69DD0C;" d="M427.146,161.145h76.77v189.709h-76.77c-7.144,0-12.935-5.792-12.935-12.935V174.08
		C414.211,166.937,420.002,161.145,427.146,161.145z"/>
	<circle style="fill:#69DD0C;" cx="256" cy="256" r="59.284"/>
	<path style="fill:#69DD0C;" d="M157.075,256c0-32.741-26.542-59.284-59.284-59.284v118.568
		C130.533,315.284,157.075,288.741,157.075,256z"/>
	<path style="fill:#69DD0C;" d="M40.577,215.854H8.084v80.292h32.493c3.023,0,5.475-2.451,5.475-5.476v-69.342
		C46.052,218.305,43.6,215.854,40.577,215.854z"/>
	<path style="fill:#69DD0C;" d="M354.927,256c0-32.741,26.542-59.284,59.284-59.284v118.568
		C381.469,315.284,354.927,288.741,354.927,256z"/>
	<path style="fill:#69DD0C;" d="M471.425,215.854h32.491v80.292h-32.491c-3.023,0-5.475-2.451-5.475-5.476v-69.342
		C465.95,218.305,468.402,215.854,471.425,215.854z"/>
</g>
<g>
	<path style="fill:#F5F5F5;" d="M495.832,223.938V207.77h-24.407c-7.476,0-13.559,6.083-13.559,13.559v69.342
		c0,7.476,6.084,13.56,13.559,13.56h24.407v-16.168h-21.797v-64.124L495.832,223.938L495.832,223.938z"/>
	<path style="fill:#F5F5F5;" d="M427.146,153.061c-11.591,0-21.019,9.429-21.019,21.019v15.054
		c-33.346,4.009-59.284,32.455-59.284,66.866s25.938,62.859,59.284,66.866v15.054c0,11.59,9.428,21.019,21.019,21.019h68.686
		v-16.168h-68.686c-2.674,0-4.851-2.176-4.851-4.851v-22.636V196.716V174.08c0-2.674,2.176-4.851,4.851-4.851h68.686v-16.168
		H427.146z M406.127,306.562c-24.406-3.886-43.116-25.08-43.116-50.562c0-25.483,18.71-46.676,43.116-50.562V306.562z"/>
	<path style="fill:#F5F5F5;" d="M247.916,101.816v87.318c-33.347,4.009-59.284,32.455-59.284,66.866s25.937,62.859,59.284,66.866
		v87.318h16.168v-87.318c33.348-4.009,59.284-32.455,59.284-66.866s-25.937-62.857-59.284-66.866v-87.318H247.916z M247.916,306.555
		C223.513,302.667,204.8,281.48,204.8,256c0-25.481,18.713-46.667,43.116-50.555V306.555z M307.2,256
		c0,25.481-18.711,46.667-43.116,50.555V205.444C288.489,209.333,307.2,230.519,307.2,256z"/>
	<path style="fill:#F5F5F5;" d="M16.168,358.939h68.688c11.591,0,21.019-9.429,21.019-21.019v-15.054
		c33.346-4.009,59.284-32.455,59.284-66.866s-25.938-62.857-59.284-66.866V174.08c0-11.59-9.428-21.019-21.019-21.019H16.168
		v-18.883l0,0v235.699l0,0V358.939z M105.875,205.438c24.406,3.886,43.116,25.08,43.116,50.562c0,25.482-18.71,46.676-43.116,50.562
		V205.438z M16.168,223.938h21.799v64.124H16.168V223.938z M16.168,304.23h24.409c7.476,0,13.559-6.084,13.559-13.56v-69.342
		c0-7.476-6.084-13.559-13.559-13.559H16.168v-38.54h68.688c2.674,0,4.851,2.176,4.851,4.851v22.636v118.568v22.636
		c0,2.674-2.176,4.851-4.851,4.851H16.168V304.23z"/>
</g>
<path style="fill:#02A544;" d="M490.981,85.647H256H21.019C9.429,85.647,0,95.077,0,106.666v54.479v54.709v80.292v54.709v54.479
	c0,11.59,9.429,21.019,21.019,21.019h36.77h19.402h26.947h303.724h26.947h19.402h36.769c11.592,0,21.019-9.429,21.019-21.019
	v-54.479v-54.709v-80.292v-54.709v-54.479C512,95.077,502.573,85.647,490.981,85.647z M495.832,139.207v13.854v16.168v38.54v16.168
	v64.124v16.168v38.54v16.168v5.908v40.487c0,2.675-2.175,4.851-4.851,4.851h-36.768h-19.402h-26.947h-52.935h-90.844h-16.168
	h-95.864h-47.913H77.191H57.789h-36.77c-2.674,0-4.851-2.175-4.851-4.851v-35.457l0,0V134.177l0,0v-27.511
	c0-2.674,2.176-4.851,4.851-4.851h131.033h95.864h16.168h90.843h136.054c2.675,0,4.851,2.176,4.851,4.851V139.207z"/>
</svg>