<?xml version="1.0" standalone="no"?><svg xmlns="http://www.w3.org/2000/svg" viewBox="0 0 1440 320"><path fill="#855bec" fill-opacity="1" d="M0,224L34.3,229.3C68.6,235,137,245,206,218.7C274.3,192,343,128,411,122.7C480,117,549,171,617,176C685.7,181,754,139,823,133.3C891.4,128,960,160,1029,186.7C1097.1,213,1166,235,1234,234.7C1302.9,235,1371,213,1406,202.7L1440,192L1440,0L1405.7,0C1371.4,0,1303,0,1234,0C1165.7,0,1097,0,1029,0C960,0,891,0,823,0C754.3,0,686,0,617,0C548.6,0,480,0,411,0C342.9,0,274,0,206,0C137.1,0,69,0,34,0L0,0Z"></path></svg>